<svg xmlns="http://www.w3.org/2000/svg" xmlns:xlink="http://www.w3.org/1999/xlink" width="500" zoomAndPan="magnify" viewBox="0 0 375 374.999991" height="500" preserveAspectRatio="xMidYMid meet" version="1.0"><defs><g/><clipPath id="78ffb5a12c"><path d="M 146.914062 119.738281 L 231.664062 119.738281 L 231.664062 204.488281 L 146.914062 204.488281 Z M 146.914062 119.738281 " clip-rule="nonzero"/></clipPath><clipPath id="d27b0e1fe2"><path d="M 189.289062 119.738281 C 165.886719 119.738281 146.914062 138.707031 146.914062 162.113281 C 146.914062 185.515625 165.886719 204.488281 189.289062 204.488281 C 212.691406 204.488281 231.664062 185.515625 231.664062 162.113281 C 231.664062 138.707031 212.691406 119.738281 189.289062 119.738281 " clip-rule="nonzero"/></clipPath><clipPath id="5e7a1b088d"><path d="M 134.847656 108.058594 L 243.597656 108.058594 L 243.597656 216.808594 L 134.847656 216.808594 Z M 134.847656 108.058594 " clip-rule="nonzero"/></clipPath><clipPath id="a842bf7236"><path d="M 189.222656 108.058594 C 159.191406 108.058594 134.847656 132.40625 134.847656 162.433594 C 134.847656 192.464844 159.191406 216.808594 189.222656 216.808594 C 219.253906 216.808594 243.597656 192.464844 243.597656 162.433594 C 243.597656 132.40625 219.253906 108.058594 189.222656 108.058594 " clip-rule="nonzero"/></clipPath><clipPath id="c4b8baffec"><path d="M 211.4375 141.007812 L 248.089844 141.007812 L 248.089844 183.546875 L 211.4375 183.546875 Z M 211.4375 141.007812 " clip-rule="nonzero"/></clipPath><clipPath id="85d4ee8c24"><path d="M 128.585938 141.007812 L 165.242188 141.007812 L 165.242188 183.546875 L 128.585938 183.546875 Z M 128.585938 141.007812 " clip-rule="nonzero"/></clipPath><clipPath id="cfc705cb3e"><path d="M 149.144531 137.085938 L 229.394531 137.085938 L 229.394531 152 L 149.144531 152 Z M 149.144531 137.085938 " clip-rule="nonzero"/></clipPath><clipPath id="fa6c8805ce"><path d="M 173 163 L 229.394531 163 L 229.394531 187 L 173 187 Z M 173 163 " clip-rule="nonzero"/></clipPath><clipPath id="73b9e17a8e"><path d="M 149.144531 155 L 175 155 L 175 187 L 149.144531 187 Z M 149.144531 155 " clip-rule="nonzero"/></clipPath></defs><g clip-path="url(#78ffb5a12c)"><g clip-path="url(#d27b0e1fe2)"><path stroke-linecap="butt" transform="matrix(0.747107, 0, 0, 0.747107, 146.913218, 119.736789)" fill="none" stroke-linejoin="miter" d="M 56.719883 0.00199745 C 25.395948 0.00199745 0.00113029 25.391587 0.00113029 56.72075 C 0.00113029 88.044686 25.395948 113.439503 56.719883 113.439503 C 88.043818 113.439503 113.438636 88.044686 113.438636 56.72075 C 113.438636 25.391587 88.043818 0.00199745 56.719883 0.00199745 " stroke="#be0219" stroke-width="12" stroke-opacity="1" stroke-miterlimit="4"/></g></g><g clip-path="url(#5e7a1b088d)"><g clip-path="url(#a842bf7236)"><path stroke-linecap="butt" transform="matrix(0.752188, 0, 0, 0.752188, 134.847754, 108.060454)" fill="none" stroke-linejoin="miter" d="M 72.288934 -0.00247272 C 32.363767 -0.00247272 -0.000130014 32.366618 -0.000130014 72.286591 C -0.000130014 112.211758 32.363767 144.575656 72.288934 144.575656 C 112.214101 144.575656 144.577998 112.211758 144.577998 72.286591 C 144.577998 32.366618 112.214101 -0.00247272 72.288934 -0.00247272 " stroke="#3f78c4" stroke-width="12" stroke-opacity="1" stroke-miterlimit="4"/></g></g><g clip-path="url(#c4b8baffec)"><path fill="#171616" d="M 211.4375 141.007812 L 248.175781 141.007812 L 248.175781 183.359375 L 211.4375 183.359375 Z M 211.4375 141.007812 " fill-opacity="1" fill-rule="nonzero"/></g><g clip-path="url(#85d4ee8c24)"><path fill="#171616" d="M 128.585938 141.007812 L 165.328125 141.007812 L 165.328125 183.359375 L 128.585938 183.359375 Z M 128.585938 141.007812 " fill-opacity="1" fill-rule="nonzero"/></g><g clip-path="url(#cfc705cb3e)"><path fill="#ee931a" d="M 222.421875 137.09375 L 156.730469 137.09375 C 152.886719 137.09375 149.769531 140.214844 149.769531 144.066406 L 149.769531 151.273438 L 229.394531 151.273438 L 229.394531 144.066406 C 229.394531 140.214844 226.265625 137.09375 222.421875 137.09375 " fill-opacity="1" fill-rule="nonzero"/></g><g clip-path="url(#fa6c8805ce)"><path fill="#ee931a" d="M 222.398438 175.300781 C 222.398438 180.910156 215.628906 183.585938 211.792969 179.742188 C 211.144531 180.394531 210.234375 180.960938 209.261719 181.269531 L 209.253906 181.269531 C 205.179688 182.511719 201.171875 179.464844 201.171875 175.300781 C 201.171875 169.765625 207.851562 166.972656 211.792969 170.863281 C 215.714844 166.964844 222.398438 169.777344 222.398438 175.300781 Z M 173.382812 166.25 L 173.925781 166.25 C 175.726562 166.25 177.191406 167.722656 177.191406 169.542969 C 177.191406 186.972656 177.265625 186.242188 177.085938 186.898438 L 222.425781 186.898438 C 226.265625 186.898438 229.394531 183.789062 229.394531 179.929688 L 229.394531 163.699219 L 173.378906 163.699219 C 173.394531 163.980469 173.382812 165.976562 173.382812 166.25 " fill-opacity="1" fill-rule="nonzero"/></g><g clip-path="url(#73b9e17a8e)"><path fill="#3f78c4" d="M 168.78125 180.90625 C 168.136719 182.046875 166.261719 181.601562 166.261719 180.195312 L 166.261719 175.859375 C 166.261719 174.070312 168.988281 174.046875 168.988281 175.859375 C 168.988281 180.191406 169.105469 180.394531 168.78125 180.90625 Z M 163.3125 180.195312 C 163.3125 181.988281 160.589844 182.007812 160.589844 180.195312 C 160.589844 176.785156 160.113281 174.496094 161.945312 174.496094 C 162.695312 174.496094 163.3125 175.109375 163.3125 175.859375 Z M 157.632812 180.195312 C 157.632812 181.992188 154.902344 182.003906 154.902344 180.195312 L 154.902344 175.859375 C 154.902344 174.046875 157.632812 174.070312 157.632812 175.859375 Z M 155.714844 163.699219 C 155.980469 160.484375 158.667969 157.941406 161.945312 157.941406 C 165.425781 157.941406 168.214844 160.789062 168.214844 164.222656 L 168.214844 168.679688 L 155.683594 168.679688 C 155.683594 163.230469 155.675781 164.488281 155.714844 163.699219 Z M 170.640625 168.679688 C 170.640625 168.402344 170.660156 163.980469 170.617188 163.699219 C 170.347656 159.140625 166.554688 155.511719 161.945312 155.511719 C 157.140625 155.511719 153.257812 159.464844 153.257812 164.222656 L 153.257812 168.679688 C 150.609375 168.679688 149.445312 168.429688 149.445312 169.542969 C 149.445312 186.738281 149.09375 186.898438 150.304688 186.898438 C 175.25 186.898438 174.445312 187.257812 174.445312 186.039062 L 174.445312 169.542969 C 174.445312 168.441406 173.359375 168.679688 170.640625 168.679688 " fill-opacity="1" fill-rule="nonzero"/></g><g fill="#ffffff" fill-opacity="1"><g transform="translate(135.458265, 241.939436)"><g><path d="M 0.558594 0 L 3.140625 0 L 3.140625 -3.097656 L 7.058594 -3.097656 C 7.179688 -3.097656 7.316406 -3.097656 7.4375 -3.121094 L 9.4375 0 L 12.496094 0 L 9.976562 -3.960938 C 11.496094 -4.917969 12.496094 -6.617188 12.496094 -8.539062 C 12.496094 -11.558594 10.058594 -13.976562 7.058594 -13.976562 L 0.558594 -13.976562 Z M 3.140625 -11.398438 L 7.058594 -11.398438 C 8.636719 -11.398438 9.917969 -10.117188 9.917969 -8.539062 C 9.917969 -7.539062 9.378906 -6.660156 8.597656 -6.136719 C 8.15625 -5.859375 7.617188 -5.699219 7.058594 -5.699219 L 3.140625 -5.699219 Z M 3.140625 -11.398438 "/></g></g></g><g fill="#ffffff" fill-opacity="1"><g transform="translate(152.853077, 241.939436)"><g><path d="M 3.140625 0 L 12.496094 0 L 12.496094 -2.578125 L 3.140625 -2.578125 L 3.140625 -5.699219 L 9.898438 -5.699219 L 9.898438 -8.277344 L 3.140625 -8.277344 L 3.140625 -11.398438 L 12.496094 -11.398438 L 12.496094 -13.976562 L 0.558594 -13.976562 L 0.558594 0 Z M 3.140625 0 "/></g></g></g><g fill="#ffffff" fill-opacity="1"><g transform="translate(170.227897, 241.939436)"><g><path d="M 12.496094 -2.039062 L 10.65625 -3.878906 C 8.9375 -2.140625 6.160156 -2.140625 4.4375 -3.878906 C 2.699219 -5.597656 2.699219 -8.378906 4.4375 -10.097656 C 6.160156 -11.835938 8.9375 -11.835938 10.65625 -10.097656 L 12.496094 -11.9375 C 9.757812 -14.675781 5.339844 -14.675781 2.597656 -11.9375 C -0.140625 -9.199219 -0.140625 -4.777344 2.597656 -2.039062 C 5.339844 0.699219 9.757812 0.699219 12.496094 -2.039062 Z M 12.496094 -2.039062 "/></g></g></g><g fill="#ffffff" fill-opacity="1"><g transform="translate(187.602717, 241.939436)"><g><path d="M 3.140625 0 L 12.496094 0 L 12.496094 -2.578125 L 3.140625 -2.578125 L 3.140625 -5.699219 L 9.898438 -5.699219 L 9.898438 -8.277344 L 3.140625 -8.277344 L 3.140625 -11.398438 L 12.496094 -11.398438 L 12.496094 -13.976562 L 0.558594 -13.976562 L 0.558594 0 Z M 3.140625 0 "/></g></g></g><g fill="#ffffff" fill-opacity="1"><g transform="translate(204.977537, 241.939436)"><g><path d="M 3.140625 0 L 3.140625 -13.996094 L 0.558594 -13.996094 L 0.558594 0 Z M 3.140625 0 "/></g></g></g><g fill="#ffffff" fill-opacity="1"><g transform="translate(212.996045, 241.939436)"><g><path d="M 3.140625 -3.097656 L 7.058594 -3.097656 C 10.058594 -3.097656 12.496094 -5.539062 12.496094 -8.539062 C 12.496094 -11.558594 10.058594 -13.976562 7.058594 -13.976562 L 0.558594 -13.976562 L 0.558594 0 L 3.140625 0 Z M 3.140625 -11.398438 L 7.058594 -11.398438 C 8.636719 -11.398438 9.917969 -10.117188 9.917969 -8.539062 C 9.917969 -6.976562 8.636719 -5.699219 7.058594 -5.699219 L 3.140625 -5.699219 Z M 3.140625 -11.398438 "/></g></g></g><g fill="#ffffff" fill-opacity="1"><g transform="translate(230.390858, 241.939436)"><g><path d="M 5.238281 0 L 7.816406 0 L 7.816406 -11.398438 L 12.496094 -11.398438 L 12.496094 -13.976562 L 0.558594 -13.976562 L 0.558594 -11.398438 L 5.238281 -11.398438 Z M 5.238281 0 "/></g></g></g><g fill="#ffffff" fill-opacity="1"><g transform="translate(117.024672, 269.689434)"><g><path d="M 7.878906 0 L 12.496094 -13.976562 L 9.777344 -13.976562 L 6.519531 -4.117188 L 3.277344 -13.976562 L 0.558594 -13.976562 L 5.160156 0 Z M 7.878906 0 "/></g></g></g><g fill="#ffffff" fill-opacity="1"><g transform="translate(134.419485, 269.689434)"><g><path d="M 4.140625 -2.578125 L 8.917969 -2.578125 L 9.777344 0 L 12.496094 0 L 7.878906 -13.976562 L 5.160156 -13.976562 L 0.558594 0 L 3.277344 0 Z M 6.519531 -9.859375 L 8.058594 -5.179688 L 4.980469 -5.179688 Z M 6.519531 -9.859375 "/></g></g></g><g fill="#ffffff" fill-opacity="1"><g transform="translate(151.814297, 269.689434)"><g><path d="M 12.496094 0 L 12.496094 -2.578125 L 3.140625 -2.578125 L 3.140625 -13.976562 L 0.558594 -13.976562 L 0.558594 0 Z M 12.496094 0 "/></g></g></g><g fill="#ffffff" fill-opacity="1"><g transform="translate(169.189117, 269.689434)"><g><path d="M 3.140625 0 L 3.140625 -13.996094 L 0.558594 -13.996094 L 0.558594 0 Z M 3.140625 0 "/></g></g></g><g fill="#ffffff" fill-opacity="1"><g transform="translate(177.207626, 269.689434)"><g><path d="M 3.140625 0 L 5.5 0 C 9.359375 0 12.496094 -3.121094 12.496094 -7 C 12.496094 -10.855469 9.359375 -13.976562 5.5 -13.976562 L 0.558594 -13.976562 L 0.558594 0 Z M 3.140625 -11.398438 L 5.5 -11.398438 C 7.9375 -11.398438 9.917969 -9.417969 9.917969 -7 C 9.917969 -4.558594 7.9375 -2.578125 5.5 -2.578125 L 3.140625 -2.578125 Z M 3.140625 -11.398438 "/></g></g></g><g fill="#ffffff" fill-opacity="1"><g transform="translate(194.602438, 269.689434)"><g><path d="M 4.140625 -2.578125 L 8.917969 -2.578125 L 9.777344 0 L 12.496094 0 L 7.878906 -13.976562 L 5.160156 -13.976562 L 0.558594 0 L 3.277344 0 Z M 6.519531 -9.859375 L 8.058594 -5.179688 L 4.980469 -5.179688 Z M 6.519531 -9.859375 "/></g></g></g><g fill="#ffffff" fill-opacity="1"><g transform="translate(211.997251, 269.689434)"><g><path d="M 5.238281 0 L 7.816406 0 L 7.816406 -11.398438 L 12.496094 -11.398438 L 12.496094 -13.976562 L 0.558594 -13.976562 L 0.558594 -11.398438 L 5.238281 -11.398438 Z M 5.238281 0 "/></g></g></g><g fill="#ffffff" fill-opacity="1"><g transform="translate(229.372071, 269.689434)"><g><path d="M 7.558594 0 C 11.417969 0 14.535156 -3.121094 14.535156 -7 C 14.535156 -10.855469 11.417969 -13.976562 7.558594 -13.976562 C 3.679688 -13.976562 0.558594 -10.855469 0.558594 -7 C 0.558594 -3.121094 3.679688 0 7.558594 0 Z M 7.558594 -11.398438 C 9.976562 -11.398438 11.957031 -9.417969 11.957031 -7 C 11.957031 -4.558594 9.976562 -2.578125 7.558594 -2.578125 C 5.117188 -2.578125 3.140625 -4.558594 3.140625 -7 C 3.140625 -9.417969 5.117188 -11.398438 7.558594 -11.398438 Z M 7.558594 -11.398438 "/></g></g></g><g fill="#ffffff" fill-opacity="1"><g transform="translate(248.806083, 269.689434)"><g><path d="M 0.558594 0 L 3.140625 0 L 3.140625 -3.097656 L 7.058594 -3.097656 C 7.179688 -3.097656 7.316406 -3.097656 7.4375 -3.121094 L 9.4375 0 L 12.496094 0 L 9.976562 -3.960938 C 11.496094 -4.917969 12.496094 -6.617188 12.496094 -8.539062 C 12.496094 -11.558594 10.058594 -13.976562 7.058594 -13.976562 L 0.558594 -13.976562 Z M 3.140625 -11.398438 L 7.058594 -11.398438 C 8.636719 -11.398438 9.917969 -10.117188 9.917969 -8.539062 C 9.917969 -7.539062 9.378906 -6.660156 8.597656 -6.136719 C 8.15625 -5.859375 7.617188 -5.699219 7.058594 -5.699219 L 3.140625 -5.699219 Z M 3.140625 -11.398438 "/></g></g></g></svg>